<svg width="49" height="48" viewBox="0 0 49 48" fill="none" xmlns="http://www.w3.org/2000/svg">
<g clip-path="url(#clip0)">
<g clip-path="url(#clip1)">
<path d="M24.8406 22.8022C29.1448 22.8022 32.4925 19.3069 32.4925 15.0171C32.4925 10.7273 28.9854 7.39087 24.6812 7.39087C20.377 7.39087 17.0293 10.8862 17.0293 15.0171C17.0293 19.3069 20.5364 22.8022 24.8406 22.8022ZM24.6812 10.5685C24.8406 10.5685 24.8406 10.5685 24.6812 10.5685C27.2318 10.5685 29.3042 12.6339 29.3042 15.176C29.3042 17.7181 27.2318 19.6246 24.6812 19.6246C22.1306 19.6246 20.2176 17.5592 20.2176 15.176C20.2176 12.6339 22.29 10.5685 24.6812 10.5685Z" fill="#0D5C63"/>
<path d="M48.4335 21.8487C45.4046 19.1477 41.4193 17.7178 37.2745 17.8767H35.9992C35.6804 19.1477 35.2021 20.2599 34.5645 21.2132C35.5209 21.0543 36.318 21.0543 37.2745 21.0543C40.3034 20.8954 43.3323 21.8487 45.7235 23.5964V35.0357H48.9118V22.3253L48.4335 21.8487Z" fill="#0D5C63"/>
<path d="M33.6088 7.70826C34.4058 5.8017 36.6376 4.84842 38.71 5.64282C40.623 6.43722 41.5795 8.66154 40.7824 10.727C40.1448 12.1569 38.71 13.1102 37.2753 13.1102C36.9565 13.1102 36.4782 13.1102 36.1594 12.9513C36.3188 13.7457 36.3188 14.5401 36.3188 15.1756V16.1289C36.6376 16.1289 36.9565 16.2878 37.2753 16.2878C41.2607 16.2878 44.449 13.1102 44.449 9.29706C44.449 5.32506 41.2607 2.14746 37.4347 2.14746C34.8841 2.14746 32.6523 3.4185 31.377 5.64282C32.174 6.11946 32.9711 6.75498 33.6088 7.70826Z" fill="#0D5C63"/>
<path d="M15.4352 21.3721C14.7975 20.4189 14.3193 19.3067 14.0005 18.0357H12.7252C8.58037 17.8768 4.59501 19.3067 1.56613 21.8488L1.08789 22.3254V35.0358H4.27618V23.5965C6.82681 21.8488 9.69628 20.8955 12.7252 21.0544C13.6816 21.0544 14.6381 21.2133 15.4352 21.3721Z" fill="#0D5C63"/>
<path d="M12.7246 16.1293C13.0435 16.1293 13.3623 16.1293 13.6811 15.9704V15.0171C13.6811 14.2227 13.6811 13.4283 13.8405 12.7928C13.5217 12.9517 13.0435 12.9517 12.7246 12.9517C10.6522 12.9517 8.89869 11.204 8.89869 9.13856C8.89869 7.07312 10.6522 5.32544 12.7246 5.32544C14.3188 5.32544 15.7535 6.27872 16.3912 7.70864C17.0288 6.91424 17.9853 6.11984 18.7824 5.48432C16.71 2.14784 12.4058 1.03568 9.0581 3.10112C5.7104 5.16656 4.59449 9.45632 6.66688 12.7928C7.9422 14.8582 10.174 16.1293 12.7246 16.1293Z" fill="#0D5C63"/>
<path d="M37.9128 31.3815L37.594 30.9049C34.4057 27.4095 29.9421 25.3441 25.1596 25.5029C20.3772 25.3441 15.7542 27.4095 12.5659 30.9049L12.2471 31.3815V43.4564C12.2471 44.8863 13.363 46.1573 14.9571 46.1573H35.3622C36.7969 46.1573 38.0722 44.8863 38.0722 43.4564V31.3815H37.9128ZM34.7245 42.9797H15.4354V32.4936C17.986 29.9516 21.4931 28.6805 25.1596 28.6805C28.6668 28.5217 32.1739 29.9516 34.7245 32.4936V42.9797Z" fill="#0D5C63"/>
</g>
</g>
<defs>
<clipPath id="clip0">
<rect width="48" height="48" fill="white" transform="translate(0.5)"/>
</clipPath>
<clipPath id="clip1">
<rect width="48" height="44.2105" fill="white" transform="translate(1 2)"/>
</clipPath>
</defs>
</svg>
